<svg xmlns="http://www.w3.org/2000/svg" width="24.665" height="24.665" viewBox="0 0 24.665 24.665">
  <path id="language_FILL0_wght400_GRAD0_opsz48" d="M16.332,28.665a12.085,12.085,0,0,1-4.84-.971,12.454,12.454,0,0,1-3.916-2.636,12.2,12.2,0,0,1-2.621-3.931A12.366,12.366,0,0,1,4,16.271a12.143,12.143,0,0,1,.956-4.825,12.288,12.288,0,0,1,2.621-3.9A12.036,12.036,0,0,1,11.492,4.94,12.428,12.428,0,0,1,16.332,4a12.428,12.428,0,0,1,4.84.94,12.036,12.036,0,0,1,3.916,2.605,12.288,12.288,0,0,1,2.621,3.9,12.143,12.143,0,0,1,.956,4.825,12.366,12.366,0,0,1-.956,4.856,12.2,12.2,0,0,1-2.621,3.931,12.454,12.454,0,0,1-3.916,2.636A12.085,12.085,0,0,1,16.332,28.665Zm0-1.788a10.261,10.261,0,0,0,1.8-2.544,15.313,15.313,0,0,0,1.187-3.407h-5.95a15.636,15.636,0,0,0,1.156,3.33A10.507,10.507,0,0,0,16.332,26.877Zm-2.621-.37a14.74,14.74,0,0,1-1.326-2.528,18.469,18.469,0,0,1-.925-3.052H6.836A11.057,11.057,0,0,0,9.55,24.364,13.546,13.546,0,0,0,13.712,26.507Zm5.272-.031a12.344,12.344,0,0,0,3.993-2.127,11.042,11.042,0,0,0,2.852-3.422H21.235a22.334,22.334,0,0,1-.94,3.021A14,14,0,0,1,18.984,26.476ZM6.22,19.076h4.9q-.092-.832-.108-1.5T11,16.271q0-.771.031-1.372t.123-1.341H6.22a8.99,8.99,0,0,0-.293,1.326,10.8,10.8,0,0,0-.077,1.387A11.946,11.946,0,0,0,5.927,17.7a8.691,8.691,0,0,0,.293,1.372Zm6.814,0h6.629q.123-.956.154-1.557t.031-1.249q0-.617-.031-1.187t-.154-1.526H13.033q-.123.956-.154,1.526t-.031,1.187q0,.647.031,1.249t.154,1.557Zm8.479,0h4.933a8.691,8.691,0,0,0,.293-1.372,11.945,11.945,0,0,0,.077-1.434,10.8,10.8,0,0,0-.077-1.387,8.99,8.99,0,0,0-.293-1.326h-4.9q.092,1.079.123,1.649t.031,1.064q0,.678-.046,1.279t-.139,1.526ZM21.2,11.708h4.625a9.989,9.989,0,0,0-2.79-3.546,10.631,10.631,0,0,0-4.085-2,13.438,13.438,0,0,1,1.31,2.466,20.052,20.052,0,0,1,.94,3.083Zm-7.831,0h5.981a12.025,12.025,0,0,0-1.141-3.16,12.612,12.612,0,0,0-1.881-2.7,6.78,6.78,0,0,0-1.665,2.189,19.907,19.907,0,0,0-1.295,3.669Zm-6.536,0h4.655a17.354,17.354,0,0,1,.863-2.975,14.637,14.637,0,0,1,1.326-2.544,10.171,10.171,0,0,0-6.844,5.519Z" transform="translate(-4 -4)" fill="#214793"/>
</svg>
